<svg width="18" height="23" viewBox="0 0 18 23" fill="none" xmlns="http://www.w3.org/2000/svg">
<g id="Frame" clip-path="url(#clip0_97_4350)">
<g id="Group">
<path id="Vector" d="M18 11.7886C18 11.0713 18 10.3592 18 9.64193C18 7.95784 18 6.21657 18 4.5013C18 3.75282 17.7609 3.0771 17.3087 2.54173C16.8565 2.00635 16.2379 1.6633 15.5103 1.55934C15.1048 1.49697 14.6942 1.51256 14.294 1.52296C14.1484 1.52815 13.9977 1.53335 13.8522 1.53335C13.7118 1.53335 13.6754 1.50736 13.6338 1.37742C13.3272 0.462605 12.6878 0.00519781 11.7366 0C10.0941 0 8.35287 0 6.25816 0C6.11262 0 5.94629 0.00519781 5.78516 0.0415824C5.06266 0.207912 4.58966 0.654923 4.37135 1.36182C4.32977 1.50736 4.28299 1.53855 4.14265 1.52815C3.85677 1.51256 3.57089 1.51776 3.29021 1.51776C3.19145 1.51776 3.09269 1.51776 2.99394 1.51776C1.26307 1.53335 0.00519781 2.78602 0 4.51169C0 9.22091 0 14.1172 0 19.0604C0 20.7912 1.25787 22.0439 2.98874 22.0491C4.70401 22.0491 6.41929 22.0491 8.12937 22.0491C8.97141 22.0491 9.81346 22.0491 10.6555 22.0491C12.1109 22.0491 13.5611 22.0491 15.0165 22.0491C15.3231 22.0491 15.5726 22.0231 15.7961 21.9659C17.132 21.6229 17.9948 20.4897 17.9948 19.0759C18 17.3607 17.9948 15.6194 17.9948 13.9353C18 13.218 18 12.5059 18 11.7886ZM1.73087 9.75628C1.73087 8.01502 1.73087 6.26855 1.73087 4.52729C1.73087 3.91395 2.02714 3.46694 2.52613 3.3214C2.86399 3.22784 3.20705 3.23823 3.56569 3.25383C3.73722 3.25902 3.91915 3.26942 4.10107 3.25902C4.10107 3.26422 4.10627 3.27462 4.10627 3.27981C4.11146 3.29541 4.11146 3.3058 4.11666 3.3214C4.45452 4.32977 5.07306 4.78198 6.12821 4.78198C8.0462 4.78198 9.96939 4.78198 11.8874 4.78198C12.9165 4.78198 13.5663 4.30378 13.8729 3.3266C13.8937 3.25902 13.9041 3.25383 13.9717 3.25383C14.1536 3.25902 14.3355 3.25383 14.5175 3.25383C14.7046 3.25383 14.9021 3.25383 15.0944 3.25383C15.7234 3.26422 16.1808 3.68005 16.2587 4.30898C16.2691 4.38695 16.2691 4.47011 16.2691 4.55848C16.2691 9.37684 16.2691 14.1952 16.2691 19.0084C16.2691 19.6685 15.9573 20.1207 15.3907 20.2714C15.266 20.3078 15.1308 20.3078 14.9957 20.3078C11.0038 20.3078 7.01184 20.3078 3.01992 20.3078C2.20387 20.3078 1.73607 19.8348 1.73607 19.0136C1.73607 17.2775 1.73607 15.5414 1.73607 13.8002V11.7522L1.73087 9.75628ZM12.1525 3.00433C12.1213 3.03552 12.0485 3.05111 11.9238 3.05111C11.2117 3.05111 10.4996 3.05111 9.78747 3.05111H8.97141H8.14496C7.46925 3.05111 6.79353 3.05111 6.11782 3.05111C6.00866 3.05111 5.88392 3.04591 5.84233 3.00433C5.80075 2.96275 5.80075 2.8432 5.80595 2.72885C5.81634 2.42738 5.9203 2.14669 6.02945 1.85042V1.84522C6.06584 1.74646 6.12301 1.74126 6.28934 1.73607H6.30494C7.27693 1.73607 8.24372 1.73607 9.21571 1.73607H10.1357C10.2865 1.73607 10.4372 1.73607 10.5879 1.73607C10.957 1.73607 11.3364 1.74126 11.7055 1.73087C11.877 1.72567 11.9498 1.78285 11.9965 1.94398C12.0069 1.98556 12.0225 2.02714 12.0329 2.06873C12.1057 2.30783 12.1733 2.53133 12.1785 2.77043C12.1941 2.90038 12.1785 2.97314 12.1525 3.00433Z" fill="#464255"/>
<path id="Vector_2" d="M4.53768 10.5671C4.63644 10.6659 4.73 10.7699 4.82875 10.8686C5.04186 11.0921 5.26537 11.2065 5.49927 11.2065C5.72798 11.2065 5.95148 11.0973 6.16459 10.879C6.72076 10.2969 7.29771 9.69391 7.86947 9.09096C8.05659 8.89864 8.15015 8.65954 8.14495 8.42044C8.13976 8.21253 8.0462 8.00982 7.89026 7.86428C7.54201 7.53682 7.04822 7.5732 6.68957 7.94744L6.59601 8.0462C6.25815 8.39446 5.9099 8.7583 5.57204 9.12215C5.52526 9.17413 5.50447 9.18452 5.49407 9.18972C5.48888 9.18452 5.46808 9.17413 5.4369 9.13254C5.34334 9.01299 5.23938 8.90904 5.13543 8.80508C5.10424 8.7739 5.07305 8.74791 5.04706 8.71672C4.89633 8.56079 4.69361 8.46203 4.54288 8.46722C4.11666 8.47762 3.85157 8.62316 3.71123 8.94023C3.56049 9.26249 3.61247 9.58475 3.85157 9.84464C4.07507 10.0837 4.30897 10.328 4.53768 10.5671Z" fill="#464255"/>
<path id="Vector_3" d="M7.65638 13.4623C7.33932 13.3168 6.98587 13.3843 6.73117 13.6442C6.32575 14.0601 5.92032 14.4863 5.53568 14.8969C5.50969 14.9229 5.4941 14.9333 5.4889 14.9385C5.4837 14.9333 5.46811 14.9229 5.45251 14.8969C5.35376 14.7774 5.2446 14.663 5.13545 14.5591L5.07827 14.4967C4.73002 14.1432 4.22583 14.112 3.88797 14.4291C3.72164 14.585 3.63328 14.7774 3.62289 14.9853C3.61769 15.214 3.71125 15.4427 3.88797 15.635C4.19465 15.9625 4.51691 16.3003 4.86516 16.659C5.05228 16.8513 5.26539 16.95 5.4889 16.95C5.7124 16.95 5.93071 16.8461 6.11783 16.6538C6.54925 16.212 6.98067 15.7545 7.40169 15.3127C7.56282 15.1412 7.72915 14.9697 7.89028 14.7982C8.06701 14.6162 8.14498 14.4187 8.13978 14.2004C8.13458 13.8625 7.96305 13.6027 7.65638 13.4623Z" fill="#464255"/>
<path id="Vector_4" d="M10.4424 10.1149C11.0038 10.1149 11.5859 10.1201 12.1941 10.1201C12.7502 10.1201 13.3376 10.1201 13.9509 10.1149C14.4343 10.1149 14.793 9.75108 14.793 9.25209C14.793 9.0078 14.7098 8.78949 14.5539 8.62836C14.3979 8.47242 14.1796 8.38406 13.9353 8.38406C13.5299 8.38406 13.1297 8.38406 12.7242 8.38406C12.5475 8.38406 12.376 8.38406 12.1993 8.38406H11.8094C11.3676 8.38406 10.931 8.38406 10.4892 8.38406H10.4684C10.3644 8.38406 10.2501 8.38406 10.1357 8.43084C9.78748 8.56598 9.56398 8.97141 9.62115 9.36125C9.68872 9.81865 10.011 10.1097 10.4424 10.1149Z" fill="#464255"/>
<path id="Vector_5" d="M10.4424 16.212C11.0193 16.212 11.6015 16.2172 12.1629 16.2172C12.7814 16.2172 13.3792 16.2172 13.9301 16.2172C14.4291 16.2172 14.793 15.8533 14.793 15.3491C14.793 14.8449 14.4395 14.4863 13.9353 14.4863C13.5299 14.4863 13.1245 14.4863 12.7242 14.4863H12.2044H11.7678C11.3416 14.4863 10.9206 14.4863 10.4944 14.4863H10.4788C10.3748 14.4863 10.2605 14.4863 10.1461 14.5331C9.79267 14.6734 9.57956 15.0684 9.63673 15.4687C9.69391 15.9157 10.011 16.212 10.4424 16.212Z" fill="#464255"/>
</g>
</g>
<defs>
<clipPath id="clip0_97_4350">
<rect width="18" height="22.0491" fill="white"/>
</clipPath>
</defs>
</svg>
