<svg width="20" height="17" viewBox="0 0 20 17" fill="none" xmlns="http://www.w3.org/2000/svg">
<g id="Frame" clip-path="url(#clip0_83_4314)">
<path id="Vector" d="M19.9321 5.05376C19.6378 3.83134 18.6191 3.0447 17.3401 3.0447C14.9802 3.03904 13.0617 3.03904 11.296 3.0447C11.296 3.0447 11.296 3.0447 11.2903 3.0447C10.9791 3.0447 10.7357 2.94283 10.532 2.71646C10.266 2.43349 9.99434 2.14487 9.73401 1.87322C9.42841 1.5563 9.11715 1.22806 8.8172 0.89982C8.26259 0.305592 7.57782 0.00564829 6.77419 0.00564829H6.43463C5.18393 -1.10195e-05 3.88795 -1.10195e-05 2.6146 0.00564829C1.61856 0.0169669 0.848896 0.452734 0.333899 1.31861C0.169779 1.59026 0.0962083 1.88454 0.0282965 2.16751L0 2.27503V14.7142L0.00565931 14.7368C0.0113186 14.7482 0.0169779 14.7651 0.0226372 14.7765C0.0282965 14.7934 0.0339559 14.8104 0.0396152 14.8217C0.237691 15.9875 1.18845 16.8647 2.35993 16.9553C2.65988 16.9779 2.96548 16.9836 3.26542 16.9836C3.45784 16.9836 3.65025 16.9836 3.84267 16.9779C4.03509 16.9779 4.23316 16.9723 4.43124 16.9723C8.70968 16.9723 13.0504 16.9723 17.3288 16.9723C18.0815 16.9723 18.7663 16.7063 19.253 16.2196C19.7397 15.7329 20.0057 15.0538 20.0057 14.2954C20.0057 12.79 20.0057 11.2903 20.0057 9.78494C20.0057 8.42671 20.0057 7.06847 20.0057 5.71024C20 5.44425 19.9774 5.24051 19.9321 5.05376ZM18.2286 5.73853C18.2286 8.58517 18.2286 11.4375 18.2286 14.2841C18.2286 14.9066 17.923 15.2066 17.2948 15.2066C15.6084 15.2066 13.9162 15.2066 12.2298 15.2066H9.97736H8.0249C6.23656 15.2066 4.44822 15.2066 2.65988 15.2066C2.21279 15.2066 1.89587 14.9915 1.794 14.6123C1.7657 14.5161 1.7657 14.4086 1.7657 14.2954V13.8879C1.7657 10.1585 1.7657 6.42897 1.7657 2.69948C1.7657 2.09393 2.07697 1.78267 2.68251 1.78267C2.7674 1.78267 2.85795 1.78267 2.94284 1.78267C3.27674 1.78267 3.60498 1.78267 3.93888 1.78267C4.85003 1.78267 5.79513 1.78267 6.72326 1.77701C6.72892 1.77701 6.72892 1.77701 6.73458 1.77701C7.05716 1.77701 7.30051 1.88454 7.52122 2.12223C7.86078 2.48443 8.206 2.85228 8.54556 3.20316C8.78325 3.45217 9.02094 3.70118 9.25863 3.95585C9.79626 4.5331 10.4754 4.82172 11.262 4.82172C13.2881 4.82172 15.3198 4.82172 17.3458 4.82172C17.7815 4.82172 18.0928 5.03678 18.1947 5.41595C18.2286 5.51216 18.2286 5.61969 18.2286 5.73853Z" fill="#464255"/>
</g>
<defs>
<clipPath id="clip0_83_4314">
<rect width="20" height="16.9893" fill="white"/>
</clipPath>
</defs>
</svg>
