<svg width="22" height="23" viewBox="0 0 22 23" fill="none" xmlns="http://www.w3.org/2000/svg">
<g id="Group">
<path id="Vector" d="M21.9106 9.92981C21.5746 7.03094 20.2146 4.60348 17.8738 2.71786C16.1562 1.34158 14.1514 0.555901 11.9081 0.377092C9.93581 0.225376 8.0231 0.59383 6.21334 1.47704C5.87198 1.64501 5.68234 1.92677 5.66066 2.30064C5.64441 2.642 5.79612 2.95085 6.06704 3.13508C6.35964 3.33014 6.74435 3.3464 7.09113 3.17843C8.81962 2.34399 10.586 2.06223 12.3362 2.34941C15.8798 2.92918 18.3127 4.91775 19.5698 8.26635C20.3555 10.3687 20.3013 12.6011 19.3964 15.099C18.8762 16.5403 18.1448 17.6403 17.1532 18.4639C16.205 19.2495 15.17 19.6234 14.0701 19.5692C13.7287 19.553 13.2519 19.45 12.9105 19.0761C12.3633 18.4639 12.0653 17.6999 12.0273 16.8112C12.0273 16.7787 12.0273 16.7571 12.0273 16.7462C12.0382 16.7408 12.0598 16.7354 12.0924 16.73C14.6444 16.2748 16.5951 13.9882 16.6276 11.409C16.6439 10.1953 16.6384 8.96533 16.633 7.77327C16.633 7.42107 16.633 7.06345 16.6276 6.71125C16.6276 6.13148 16.2212 5.7251 15.636 5.7251C14.9208 5.71968 14.1676 5.71968 13.4036 5.7251C13.1219 5.7251 12.8618 5.82805 12.6775 6.01769C12.5042 6.1965 12.4066 6.42949 12.412 6.68958C12.4175 7.22601 12.8455 7.63781 13.4145 7.63781H13.6258C13.978 7.64323 14.3356 7.64323 14.6932 7.63239C14.704 7.63239 14.7095 7.63239 14.7149 7.63239C14.7149 7.64323 14.7149 7.65406 14.7149 7.67032C14.7095 8.13631 14.7095 8.60771 14.7095 9.06286C14.7095 9.48008 14.7095 9.90814 14.7095 10.3308C14.7095 10.4662 14.7095 10.6017 14.7095 10.7317C14.7149 11.1002 14.7149 11.4416 14.6715 11.7938C14.4277 13.6577 12.7426 15.034 10.8353 14.9256C8.98217 14.8227 7.44875 13.2513 7.42166 11.4199C7.41082 10.645 7.41082 9.85937 7.41082 9.09537C7.41082 8.61855 7.41082 8.12005 7.41082 7.63781C7.7576 7.64323 8.1098 7.64323 8.45116 7.64323H8.67874C8.98759 7.64323 9.26393 7.53486 9.45357 7.33979C9.62696 7.1664 9.71908 6.92799 9.71366 6.67333C9.70824 6.12606 9.26935 5.73052 8.67874 5.73052C8.01768 5.73052 7.31871 5.73052 6.54387 5.73052C5.88282 5.73052 5.49811 6.11523 5.49811 6.78169C5.49811 7.33979 5.49811 7.89789 5.49811 8.45599V9.15497C5.49811 9.37713 5.49811 9.59929 5.49811 9.81602C5.49811 10.2983 5.49811 10.7805 5.49811 11.2627C5.50353 12.5794 5.95868 13.8473 6.7877 14.8389C7.61672 15.8305 8.78169 16.5078 10.0767 16.7462C10.0929 16.7516 10.1092 16.7516 10.1146 16.7571C10.1146 16.7625 10.1146 16.7733 10.12 16.7841C10.1742 17.4885 10.2826 18.0954 10.456 18.6373C10.8732 19.9377 11.6101 20.7721 12.6992 21.1893C13.1923 21.379 13.7071 21.4711 14.2543 21.4711C14.8233 21.4711 15.4355 21.3681 16.1128 21.1677C17.6083 20.7179 18.8654 19.7643 19.8462 18.3338C21.5746 15.8142 22.2628 12.9912 21.9106 9.92981Z" fill="#464255"/>
<path id="Vector_2" d="M7.43791 18.789C7.43249 18.6752 7.42165 18.5614 7.39998 18.4422C7.22659 17.4885 6.71725 16.6974 5.95867 16.2044C5.20009 15.7167 4.2627 15.5758 3.32531 15.8142C3.30905 15.8197 3.29822 15.8197 3.2928 15.8197C3.28738 15.8142 3.28196 15.8034 3.27654 15.7871C2.21453 13.9124 1.84607 11.9021 2.18202 9.81602C2.47461 7.99542 3.28738 6.37531 4.59322 5.00444C4.78829 4.79854 4.89124 4.54387 4.8804 4.28379C4.86957 4.03454 4.7612 3.80155 4.56613 3.62274C4.16517 3.25428 3.59081 3.28138 3.2061 3.69318C1.22837 5.79012 0.198865 8.29886 0.150099 11.1544C0.117588 13.1375 0.621504 15.034 1.64017 16.7841C1.68894 16.8654 1.68894 16.8654 1.64017 16.9196C1.09291 17.6023 0.859915 18.3934 0.94661 19.2712C1.11458 20.9455 2.52338 22.2026 4.2031 22.2026C4.2627 22.2026 4.3223 22.2026 4.3819 22.1972C6.0833 22.1051 7.43249 20.68 7.44874 18.9515V18.9407V18.9298C7.44333 18.8865 7.44333 18.8377 7.43791 18.789ZM4.17059 20.2899C3.81297 20.2899 3.47702 20.149 3.22236 19.8943C2.96769 19.6397 2.82681 19.2983 2.82681 18.9407C2.82681 18.2038 3.42284 17.6023 4.15975 17.6023C4.16517 17.6023 4.16517 17.6023 4.17059 17.6023C4.5282 17.6023 4.86957 17.7432 5.12423 17.9925C5.3789 18.2471 5.51978 18.5776 5.51978 18.9353C5.51978 19.683 4.91291 20.2899 4.17059 20.2899Z" fill="#464255"/>
</g>
</svg>
