<svg width="21" height="22" viewBox="0 0 21 22" fill="none" xmlns="http://www.w3.org/2000/svg">
<path id="Vector" d="M19.2864 5.03056V1.90344C19.2864 1.33395 18.8237 0.871234 18.2542 0.871234C17.6847 0.871234 17.222 1.33395 17.222 1.90344V3.64751L12.9814 0.779709C11.461 -0.242325 9.50339 -0.242325 7.99322 0.779709L1.96271 4.85259C0.732203 5.6814 0 7.06446 0 8.5492V16.5475C0 19.0085 2.00339 21.0119 4.46441 21.0119H7.0678C7.62712 21.0119 8.08475 20.5594 8.08475 20V13.1102C8.08475 12.7187 8.40508 12.4034 8.79661 12.4034H12.2542C12.6458 12.4034 12.9661 12.7238 12.9661 13.1102V20C12.9661 20.5594 13.4237 21.0119 13.9831 21.0119H16.5356C18.9966 21.0119 21 19.0085 21 16.5475V8.5492C21 7.1814 20.3593 5.86954 19.2864 5.03056ZM12.2441 10.3848H8.80678C7.29661 10.3848 6.0661 11.6153 6.0661 13.1255V18.9984H4.5C3.15763 18.9984 2.06441 17.9051 2.06441 16.5628V8.53395C2.06441 7.72039 2.4661 6.96276 3.13729 6.51022L9.16271 2.42717C9.98644 1.86784 11.0542 1.86784 11.878 2.42717L17.9034 6.51022C18.5746 6.96276 18.9763 7.72039 18.9763 8.53395V16.6187C18.9407 17.9306 17.8525 18.9933 16.5458 18.9933H14.9746V13.1255C14.9847 11.6153 13.7542 10.3848 12.2441 10.3848Z" fill="#464255"/>
</svg>
