<svg width="20" height="21" viewBox="0 0 20 21" fill="none" xmlns="http://www.w3.org/2000/svg">
<g id="Group">
<path id="Vector" d="M16.9388 4.10747C16.5481 3.71677 15.9158 3.71163 15.5199 4.10233C15.1293 4.49303 15.1241 5.12534 15.5148 5.52118C16.9953 7.012 17.8127 8.99119 17.8127 11.0886C17.8127 15.448 14.2656 18.9951 9.90624 18.9951C5.54688 18.9951 2.0049 15.448 2.0049 11.0938C2.0049 8.7907 3.00734 6.60588 4.7552 5.09963C5.17674 4.73978 5.22301 4.10747 4.86316 3.68593C4.5033 3.26438 3.87099 3.21812 3.44945 3.57797C1.25435 5.46463 0 8.20465 0 11.0938C0 16.5532 4.44676 21 9.91138 21C15.376 21 19.8176 16.5532 19.8176 11.0938C19.8176 8.45655 18.7946 5.9787 16.9388 4.10747Z" fill="#464255"/>
<path id="Vector_2" d="M9.93708 9.79315C10.4923 9.79315 10.9395 9.3459 10.9395 8.7907V1.00245C10.9395 0.447246 10.4871 0 9.93708 0C9.38702 0 8.93463 0.447246 8.93463 1.00245V8.7907C8.93463 9.3459 9.38188 9.79315 9.93708 9.79315Z" fill="#464255"/>
</g>
</svg>
