<svg width="21" height="23" viewBox="0 0 21 23" fill="none" xmlns="http://www.w3.org/2000/svg">
<g id="Group">
<path id="Vector" d="M20.1636 16.0282L19.87 15.3397C18.8171 12.8491 16.6808 11.0521 14.1498 10.3991C15.3596 9.36639 16.124 7.83256 16.124 6.12155C16.124 3.01846 13.6031 0.497507 10.5 0.497507C7.39686 0.497507 4.87591 3.01846 4.87591 6.12155C4.87591 7.83256 5.64536 9.36639 6.85015 10.3991C4.31401 11.0571 2.18285 12.8542 1.12993 15.3397L0.836321 16.0282C0.188366 17.5569 0.350355 19.2983 1.2666 20.6853C2.18285 22.0724 3.72681 22.8975 5.38719 22.8975H15.6077C17.268 22.8975 18.812 22.0724 19.7282 20.6853C20.6496 19.2983 20.8115 17.5569 20.1636 16.0282ZM6.4958 6.12155C6.4958 3.91446 8.29286 2.11739 10.5 2.11739C12.7071 2.11739 14.5041 3.91446 14.5041 6.12155C14.5041 8.32865 12.7071 10.1257 10.5 10.1257C8.29286 10.1257 6.4958 8.32865 6.4958 6.12155ZM18.3817 19.7893C17.754 20.736 16.7466 21.2776 15.6127 21.2776H5.39225C4.25833 21.2776 3.25096 20.736 2.62326 19.7893C1.99555 18.8427 1.88925 17.7037 2.33472 16.6609L2.62832 15.9725C3.71668 13.406 6.21738 11.7456 9.00662 11.7456H12.0034C14.7927 11.7456 17.2984 13.406 18.3817 15.9725L18.6753 16.6609C19.1107 17.7037 19.0044 18.8427 18.3817 19.7893Z" fill="#464255"/>
<path id="Vector_2" d="M13.1525 15.8257H11.3149V13.9881C11.3149 13.5427 10.9505 13.1782 10.505 13.1782C10.0595 13.1782 9.69505 13.5427 9.69505 13.9881V15.8257H7.85749C7.41202 15.8257 7.04755 16.1902 7.04755 16.6356C7.04755 17.0811 7.41202 17.4456 7.85749 17.4456H9.69505V19.2781C9.69505 19.7235 10.0595 20.088 10.505 20.088C10.9505 20.088 11.3149 19.7235 11.3149 19.2781V17.4405H13.1525C13.598 17.4405 13.9624 17.076 13.9624 16.6306C13.9624 16.1851 13.598 15.8257 13.1525 15.8257Z" fill="#464255"/>
</g>
</svg>
