<svg width="19" height="21" viewBox="0 0 19 21" fill="none" xmlns="http://www.w3.org/2000/svg">
<path id="Vector" d="M18.7525 19.1985L15.0506 14.6852C16.3927 13.2945 17.2259 11.5119 17.4295 9.56501C17.6648 7.25778 16.9842 4.9948 15.5149 3.19959C14.0456 1.40438 11.9529 0.279212 9.63122 0.0453292C7.3032 -0.188554 5.03243 0.487811 3.21962 1.95432C1.41318 3.41451 0.287334 5.49418 0.0456267 7.8014C-0.18972 10.1086 0.490876 12.3716 1.9602 14.1668C3.43589 15.962 5.5222 17.0872 7.84386 17.3211C8.14918 17.3527 8.44813 17.3653 8.74708 17.3653C10.3691 17.3653 11.9338 16.9228 13.3077 16.0758L17.016 20.5954C17.2386 20.8609 17.5567 21 17.8811 21C18.1291 21 18.3772 20.9178 18.5807 20.7535C19.0642 20.3742 19.1405 19.6726 18.7525 19.1985ZM8.74708 15.1529C8.52446 15.1529 8.29547 15.1403 8.07285 15.1213C6.34273 14.9443 4.78436 14.1099 3.69032 12.7698C2.58991 11.4298 2.08742 9.74832 2.25916 8.02896C2.43726 6.30961 3.27687 4.76092 4.62534 3.67368C5.79571 2.7255 7.23323 2.21981 8.72164 2.21981C8.94427 2.21981 9.17325 2.23245 9.39588 2.25142C11.126 2.42841 12.6844 3.2628 13.7784 4.60289C14.8788 5.94298 15.3813 7.62441 15.2096 9.34377C15.0378 10.9873 14.2618 12.4791 13.0088 13.56C12.9324 13.5979 12.8625 13.6422 12.7925 13.6927C12.7289 13.7433 12.6716 13.8065 12.6208 13.8697C11.4949 14.7104 10.1464 15.1529 8.74708 15.1529Z" fill="#464255"/>
</svg>
