<svg width="24" height="21" viewBox="0 0 24 21" fill="none" xmlns="http://www.w3.org/2000/svg">
<g id="Group">
<path id="Vector" d="M23.2263 5.23791C22.9409 4.05399 21.9473 3.28232 20.6999 3.28232C18.5012 3.27703 16.7042 3.27703 15.0498 3.28232C14.7856 3.28232 14.59 3.19775 14.4156 3.00748C14.1778 2.75378 13.9346 2.50008 13.7021 2.25167L13.6281 2.17239C13.3585 1.89226 13.0784 1.59628 12.8141 1.30558C12.2856 0.73476 11.6196 0.438778 10.8374 0.438778H10.515C9.24648 0.433493 8.09955 0.433493 6.94734 0.438778C5.97483 0.444064 5.22959 0.877466 4.72747 1.71256C4.56891 1.97683 4.5002 2.25695 4.43149 2.53179L4.39978 2.65336V2.99691L4.51606 2.98105L4.92832 2.97577C4.9706 2.97577 5.01817 2.97577 5.06045 2.97577H5.19259C5.52028 2.97577 5.84798 2.97577 6.17039 2.97577H6.26024L6.27081 2.88591C6.32366 2.50008 6.56679 2.30981 7.01076 2.30981H8.18412C9.0245 2.30981 9.91773 2.30981 10.7845 2.30452H10.7951C11.0699 2.30452 11.2655 2.38909 11.4505 2.58993C11.7676 2.93348 12.09 3.27175 12.4071 3.60473C12.6291 3.83728 12.8511 4.06984 13.0731 4.3024C13.5964 4.86265 14.2517 5.14278 15.0234 5.14278C16.9156 5.14278 18.8078 5.14278 20.7052 5.14278C21.0646 5.14278 21.313 5.31191 21.3976 5.61846C21.4187 5.69774 21.4187 5.78759 21.4187 5.8933V6.02015C21.4187 8.63642 21.4187 11.258 21.4187 13.8742C21.4187 14.3658 21.2126 14.5983 20.7422 14.6248L20.6418 14.6301V14.7305C20.6418 14.9313 20.6418 15.1322 20.6418 15.333V16.2157C20.6418 16.2685 20.6418 16.3267 20.6365 16.3848L20.6312 16.5011H20.7475C21.4557 16.4852 22.1006 16.2262 22.5551 15.7664C23.0255 15.296 23.2845 14.6301 23.2898 13.8954C23.2898 12.4895 23.2898 11.0888 23.2898 9.68293C23.2898 8.41443 23.2898 7.14594 23.2898 5.87744C23.2898 5.62375 23.2686 5.4229 23.2263 5.23791Z" fill="#464255"/>
<path id="Vector_2" d="M16.3001 6.84883C14.1014 6.84354 12.3044 6.84354 10.6501 6.84883C10.3858 6.84883 10.1902 6.76426 10.0158 6.57398C9.77797 6.32029 9.53484 6.06659 9.30229 5.81817L9.22829 5.73889C8.95874 5.45877 8.67861 5.16279 8.41434 4.87209C7.8858 4.30127 7.21984 4.00529 6.43761 4.00529H6.1152C5.62365 4.00529 5.12154 4 4.61943 4C4.61943 4 4.61943 4 4.61415 4C4.57186 4 4.52429 4 4.48201 4H4.20189C3.87419 4 3.5465 4 3.22409 4H3.09195C3.04967 4 3.0021 4 2.95982 4L2.54756 4.00529C2.54227 4.00529 2.53699 4.00529 2.5317 4.00529C1.56976 4.01586 0.824521 4.44397 0.327694 5.27906C0.169132 5.54333 0.100422 5.82346 0.0317123 6.0983L0 6.21986V17.8689L0.0105708 17.9059C0.0158562 17.9217 0.0211416 17.9323 0.026427 17.9481C0.0317123 17.9587 0.0317123 17.964 0.0317123 17.9693C0.221986 19.1056 1.15222 19.9619 2.29386 20.0517C2.54227 20.0729 2.80654 20.0782 3.15009 20.0782C3.30337 20.0782 3.45665 20.0782 3.60464 20.0729H3.6892C3.85834 20.0729 4.04861 20.0676 4.2336 20.0676C8.08136 20.0676 12.1353 20.0729 16.279 20.0676C17.0137 20.0676 17.6743 19.8086 18.15 19.3329C18.5781 18.9048 18.8371 18.3023 18.8741 17.6416C18.8794 17.5782 18.8794 17.52 18.8794 17.4619V16.5845C18.8794 16.3837 18.8794 16.1828 18.8794 15.982C18.8794 15.8076 18.8794 15.6331 18.8794 15.4587C18.8794 15.4164 18.8794 15.3689 18.8794 15.3266V13.2547C18.8794 11.9862 18.8794 10.7177 18.8794 9.44924C18.8794 9.19025 18.8583 8.98941 18.816 8.80442C18.5359 7.61521 17.5475 6.84883 16.3001 6.84883ZM17.0242 16.4312V16.5898C17.0242 16.6321 17.0242 16.6744 17.0242 16.7219V17.4566C17.0242 17.4777 17.0242 17.4936 17.0242 17.5147C17.0084 18.001 16.7705 18.2124 16.2631 18.2124C15.2114 18.2124 14.1596 18.2124 13.1078 18.2124H7.60568C5.93549 18.2124 4.26531 18.2124 2.59513 18.2124C2.22515 18.2124 1.97145 18.0433 1.88688 17.7314C1.86574 17.6522 1.86574 17.5623 1.86574 17.4619V14.4386C1.86574 11.8382 1.86574 9.23254 1.86574 6.63212C1.86574 6.11944 2.10359 5.8816 2.61627 5.8816H3.22409C3.41436 5.8816 3.60464 5.8816 3.79491 5.8816H3.88476C3.9429 5.8816 4.00633 5.8816 4.06447 5.8816C4.1596 5.8816 4.26002 5.8816 4.35516 5.8816H4.61943C5.27482 5.8816 5.85621 5.8816 6.40061 5.87631H6.41118C6.68602 5.87631 6.88158 5.96088 7.06657 6.16172C7.38369 6.50528 7.7061 6.84354 8.02322 7.17652C8.24521 7.40908 8.46719 7.64163 8.68918 7.87419C9.21243 8.43444 9.86782 8.71457 10.6395 8.71457C12.5317 8.71457 14.4238 8.71457 16.3213 8.71457C16.6807 8.71457 16.9291 8.8837 17.0137 9.19025C17.0348 9.26953 17.0348 9.35939 17.0348 9.46509C17.0348 11.3731 17.0348 13.2811 17.0348 15.1892V15.4534C17.0348 15.6754 17.0348 15.8921 17.0348 16.1141C17.0242 16.2198 17.0242 16.3255 17.0242 16.4312Z" fill="#464255"/>
</g>
</svg>
