<svg width="81" height="81" viewBox="0 0 81 81" fill="none" xmlns="http://www.w3.org/2000/svg">
<rect x="0.5" y="0.5" width="80" height="80" rx="9.16667" fill="#EDDFFF"/>
<path d="M56.3298 18.5024C55.5749 18.3717 54.8636 18.8798 54.7474 19.6347C54.6168 20.3895 55.1249 21.1009 55.8797 21.217C58.4057 21.638 60.3074 24.0333 60.3074 26.806V56.8559C60.3074 59.9771 57.9702 62.5175 55.0813 62.5175H26.9187C24.0444 62.5175 21.6926 59.9771 21.6926 56.8559V26.806C21.6926 24.0333 23.5943 21.6235 26.1203 21.217C26.8751 21.0864 27.3832 20.3895 27.2526 19.6347C27.1219 18.8798 26.4251 18.3717 25.6703 18.5024C21.7652 19.1556 18.9344 22.6542 18.9344 26.8205V56.8704C18.9344 61.5158 22.5201 65.2902 26.9187 65.2902H55.0813C59.4799 65.2902 63.0656 61.5158 63.0656 56.8704V26.8205C63.0656 22.6542 60.2348 19.1556 56.3298 18.5024Z" fill="#A560FF"/>
<path d="M34.1481 24.4833H47.8375C50.5811 24.4833 52.8167 22.2477 52.8167 19.504C52.8167 16.7603 50.5956 14.5102 47.852 14.5102H34.1626C31.4044 14.5102 29.1688 16.7458 29.1688 19.4895C29.1688 22.2332 31.4044 24.4833 34.1481 24.4833ZM34.1481 17.2684H47.8375C49.0714 17.2684 50.0585 18.2701 50.0585 19.4895C50.0585 20.7089 49.0569 21.7106 47.8375 21.7106H34.1481C32.9142 21.7106 31.927 20.7089 31.927 19.4895C31.927 18.2701 32.9287 17.2684 34.1481 17.2684Z" fill="#A560FF"/>
<path d="M27.4122 36.2129L30.0108 39.1744C30.5479 39.7841 31.3028 40.1615 32.1157 40.2051C32.1738 40.2051 32.2463 40.2051 32.3044 40.2051C33.0593 40.2051 33.7706 39.9292 34.3368 39.4357L39.7951 34.5725C40.3612 34.0644 40.4193 33.1934 39.9112 32.6273C39.4031 32.0611 38.5321 32.003 37.966 32.5111L32.5076 37.3743C32.4351 37.4469 32.348 37.4614 32.2899 37.4469C32.2318 37.4469 32.1447 37.4178 32.0867 37.3452L29.4881 34.3983C28.9801 33.8322 28.1091 33.7741 27.5429 34.2822C26.9767 34.7757 26.9187 35.6468 27.4122 36.2129Z" fill="#A560FF"/>
<path d="M51.3795 34.7758H45.5147C44.7598 34.7758 44.1356 35.4 44.1356 36.1549C44.1356 36.9097 44.7598 37.534 45.5147 37.534H51.3795C52.1344 37.534 52.7586 36.9097 52.7586 36.1549C52.7586 35.4 52.1344 34.7758 51.3795 34.7758Z" fill="#A560FF"/>
<path d="M37.995 46.7377L32.5367 51.6008C32.4641 51.6734 32.377 51.6879 32.3189 51.6734C32.2609 51.6734 32.1738 51.6444 32.1157 51.5718L29.4882 48.6248C28.9801 48.0587 28.1091 48.0006 27.5429 48.5087C26.9767 49.0168 26.9187 49.8878 27.4268 50.454L30.0253 53.4154C30.5624 54.0251 31.3173 54.4026 32.1302 54.4461C32.1883 54.4461 32.2609 54.4461 32.3189 54.4461C33.0738 54.4461 33.7851 54.1703 34.3513 53.6767L39.8096 48.8136C40.3758 48.3055 40.4338 47.4345 39.9257 46.8683C39.4322 46.2876 38.5612 46.2296 37.995 46.7377Z" fill="#A560FF"/>
<path d="M51.3795 49.0023H45.5147C44.7598 49.0023 44.1356 49.6265 44.1356 50.3814C44.1356 51.1363 44.7598 51.7605 45.5147 51.7605H51.3795C52.1344 51.7605 52.7586 51.1363 52.7586 50.3814C52.7586 49.6265 52.1344 49.0023 51.3795 49.0023Z" fill="#A560FF"/>
</svg>
