<svg width="81" height="81" viewBox="0 0 81 81" fill="none" xmlns="http://www.w3.org/2000/svg">
<rect x="0.5" y="0.5" width="80" height="80" rx="10.3529" fill="#FFEFD2"/>
<path d="M64.6012 37.6856L43.0351 17.1412C41.4547 15.6426 38.9616 15.6153 37.3677 17.0867L15.42 37.1134C14.8887 37.5902 14.8615 38.4076 15.3383 38.939C15.8151 39.4703 16.6325 39.4975 17.1639 39.0207L19.0848 37.2769V52.6171C19.0848 58.5569 23.9212 63.3933 29.861 63.3933H50.5417C56.4816 63.3933 61.3179 58.5569 61.3179 52.6171V38.1352L62.8029 39.552C63.0481 39.7972 63.3751 39.9062 63.7021 39.9062C64.0427 39.9062 64.3833 39.77 64.6421 39.5111C65.1326 39.0071 65.1189 38.176 64.6012 37.6856ZM58.7295 36.0099V52.6171C58.7295 57.1265 55.0511 60.8048 50.5417 60.8048H29.861C25.3516 60.8048 21.6733 57.1401 21.6733 52.6171V35.3014H21.2509L39.0979 18.994C39.7109 18.4354 40.6509 18.4491 41.2368 19.0212L59.0701 36.0099H58.7295Z" fill="#FFAE1F"/>
<path d="M35.2015 36.7183V38.7073H33.2125C30.5287 38.7073 28.3489 40.8871 28.3489 43.571C28.3489 46.2548 30.5287 48.4346 33.2125 48.4346H35.2015V50.4236C35.2015 53.1075 37.3813 55.2873 40.0652 55.2873C42.749 55.2873 44.9288 53.1075 44.9288 50.4236V48.4346H46.9178C49.6017 48.4346 51.7815 46.2548 51.7815 43.571C51.7815 40.8871 49.6017 38.7073 46.9178 38.7073H44.9288V36.7183C44.9288 34.0345 42.749 31.8547 40.0652 31.8547C37.3813 31.8547 35.2015 34.0345 35.2015 36.7183ZM42.3403 36.7183V41.2958H46.9178C48.1712 41.2958 49.193 42.3176 49.193 43.571C49.193 44.8243 48.1712 45.8461 46.9178 45.8461H42.3403V50.4236C42.3403 51.677 41.3185 52.6988 40.0652 52.6988C38.8118 52.6988 37.79 51.677 37.79 50.4236V45.8461H33.2125C31.9591 45.8461 30.9374 44.8243 30.9374 43.571C30.9374 42.3176 31.9591 41.2958 33.2125 41.2958H37.79V36.7183C37.79 35.4649 38.8118 34.4432 40.0652 34.4432C41.3185 34.4432 42.3403 35.4649 42.3403 36.7183Z" fill="#FFAE1F"/>
</svg>
