<svg width="81" height="81" viewBox="0 0 81 81" fill="none" xmlns="http://www.w3.org/2000/svg">
<rect x="0.5" y="0.5" width="80" height="80" rx="9.16667" fill="#FFF1EF"/>
<path d="M32.7617 41.911C32.816 41.911 32.8704 41.911 32.9112 41.8974C32.9383 41.8974 32.9519 41.8974 32.9655 41.8974C33.1286 41.8838 33.3052 41.8838 33.4683 41.8838C33.5498 41.8838 33.6449 41.8838 33.7264 41.8838C35.2211 41.8566 36.743 41.8566 38.2105 41.8566C38.7133 41.8566 39.2297 41.8566 39.7324 41.8566H40.9146C42.1783 41.8566 43.4556 41.8566 44.7193 41.8566C45.983 41.8566 47.301 41.8566 48.5919 41.843C50.6981 41.8158 52.2471 40.3891 52.4374 38.2829C52.4917 37.6579 52.3286 37.1008 52.1112 36.5301C52.2064 36.5301 52.3015 36.53 52.3966 36.5165C52.8042 36.5029 53.1983 36.4893 53.5923 36.4349C54.7745 36.2719 55.7936 35.5789 56.3779 34.5326C56.9622 33.4999 57.0302 32.2905 56.5682 31.2035C56.541 31.1355 56.5274 31.0948 56.5138 31.0676C56.5546 31.054 56.6089 31.0404 56.6633 31.0268H56.6904C58.3618 30.6056 59.5032 29.206 59.544 27.5211C59.5711 25.9449 58.8374 24.7491 57.3427 23.9882C57.2883 23.961 57.2476 23.9338 57.2204 23.9202C57.234 23.9066 57.2612 23.8795 57.2883 23.8523C57.5193 23.6621 57.7096 23.4446 57.9134 23.2408L57.9677 23.1729C59.1091 21.9635 59.6527 20.4145 59.4488 18.9198C59.2586 17.4523 58.4297 16.1886 57.0981 15.3597C56.7312 15.1287 56.3236 15.0064 55.9295 14.8841C55.7121 14.8162 55.5219 14.7618 55.318 14.6803H55.3316H54.1359H54.0951C52.6955 14.9385 51.4726 15.6722 50.372 16.9495C50.3584 16.9631 50.3448 16.9767 50.3312 16.9903C49.8012 15.8081 48.8365 15.0607 47.3961 14.6667L47.369 14.6803H46.2004L46.1324 14.7618C46.1053 14.8026 46.0509 14.8162 45.9422 14.8297C45.8879 14.8433 45.8199 14.8433 45.752 14.8705C44.6242 15.251 43.836 15.9983 43.3876 17.099C43.1023 17.792 43.1159 18.5257 43.1295 19.2187V19.3274C43.1295 19.3818 43.1295 19.4497 43.1295 19.5041C43.0887 19.4905 43.0479 19.4769 42.9664 19.4497C41.4309 18.8111 39.6781 19.2867 38.6046 20.6591C37.8301 21.6374 37.7485 22.7652 37.7621 23.6485C37.7621 23.7572 37.7621 23.8659 37.7621 23.9474C37.6942 23.9338 37.5855 23.8931 37.4904 23.8523C36.6479 23.5533 35.8054 23.5533 34.9901 23.8523C33.3324 24.4773 32.4084 25.8905 32.4084 27.8064C32.4084 32.5215 32.4084 36.367 32.4084 39.8727C32.4084 40.2668 32.3948 40.6744 32.3676 41.0549C32.354 41.218 32.354 41.381 32.3405 41.5441C32.3405 41.5848 32.3405 41.6528 32.3676 41.7207C32.4627 41.8702 32.6258 41.911 32.7617 41.911ZM34.6233 31.6247C34.6233 30.2795 34.6233 28.9479 34.6233 27.6026C34.6233 26.9232 34.7999 26.4612 35.1804 26.1079C35.6424 25.6867 36.1587 25.5644 36.7023 25.7546C37.2865 25.9585 37.6398 26.3797 37.735 26.9912C37.735 27.0047 37.735 27.0183 37.735 27.0319C37.735 27.0591 37.735 27.0727 37.735 27.0999C37.8572 27.9423 38.2921 28.3907 38.9443 28.3228C39.4063 28.282 39.9498 28.0103 39.9498 26.9232C39.9498 26.0807 39.9498 25.2519 39.9498 24.4094C39.9498 23.9882 39.9498 23.5805 39.9498 23.1593C39.9498 22.7516 39.9906 22.2896 40.2759 21.8956C40.67 21.3521 41.3086 21.0939 41.8793 21.2434C42.5588 21.4336 42.9392 21.8412 43.0615 22.5206C43.1974 23.268 43.442 23.9338 44.3252 23.8523C45.2084 23.7572 45.3036 22.9419 45.3036 22.3304C45.3036 21.882 45.3036 21.4336 45.3036 20.9852C45.3036 20.1699 45.3036 19.341 45.3036 18.5257C45.3036 17.4794 45.915 16.7729 46.7983 16.7593C47.6815 16.7457 48.4017 17.5066 48.4424 18.4986C48.456 18.6752 48.456 18.879 48.4424 19.11C48.4288 19.803 48.7957 20.102 49.1218 20.2378C49.5703 20.4281 50.0187 20.3194 50.3991 19.9389C50.6573 19.6807 50.9155 19.409 51.1737 19.1508C51.6764 18.6344 52.1928 18.1045 52.7091 17.6017C53.6331 16.7049 54.9512 16.5283 55.9974 17.1533C56.6769 17.561 57.1389 18.2404 57.2612 19.0285C57.3834 19.803 57.166 20.5911 56.6633 21.189C56.1877 21.7461 55.6577 22.2761 55.1414 22.7788C54.9104 23.0098 54.6522 23.2544 54.4212 23.499C54.3941 23.5262 54.3533 23.5669 54.3261 23.5941C54.231 23.6892 54.1359 23.7843 54.0408 23.8931C53.7826 24.2328 53.7146 24.654 53.8641 25.0209C54.0136 25.3742 54.3669 25.6188 54.7881 25.6595C54.9783 25.6867 55.1686 25.6867 55.3452 25.6867C55.549 25.6867 55.7393 25.7003 55.9295 25.7275C56.7312 25.8362 57.3427 26.5292 57.3291 27.3037C57.3155 28.119 56.704 28.7576 55.8887 28.812C55.3588 28.8527 54.8153 28.8391 54.2853 28.8391C53.9049 28.8391 53.5108 28.8391 53.1304 28.8527C52.4917 28.8663 52.0569 29.274 52.0025 29.8583C51.9618 30.429 52.3422 30.8774 52.9673 31.0133C53.0488 31.0268 53.1303 31.0404 53.2119 31.054C53.2662 31.0676 53.3342 31.0676 53.3885 31.0812C53.9049 31.1763 54.3125 31.4888 54.5299 31.9644C54.7338 32.4264 54.693 32.9428 54.4212 33.3912C54.0951 33.9211 53.5923 34.1929 52.9265 34.2065C52.4645 34.2201 51.9889 34.2201 51.5269 34.2065C51.3367 34.2065 51.1329 34.2065 50.9427 34.2065C50.7252 34.2065 50.4942 34.2065 50.2768 34.2065C49.7877 34.2065 49.2985 34.2065 48.8093 34.2065C48.062 34.2201 47.5864 34.6141 47.5456 35.2528C47.532 35.5381 47.6271 35.8099 47.8174 36.0273C48.0212 36.2583 48.3337 36.3806 48.6734 36.4078C49.4344 36.4485 50.2361 37.0736 50.2089 38.0519C50.1681 38.9487 49.4615 39.5602 48.4288 39.5602C45.3715 39.5602 42.3278 39.5602 39.2704 39.5602H36.0772L36.2674 39.37C36.6615 38.9895 37.0555 38.6226 37.436 38.2422C37.4904 38.1878 37.5583 38.1878 37.7078 38.1878C37.7485 38.1878 37.7893 38.1878 37.8301 38.1878H38.7677C40.0857 38.1878 41.4581 38.1742 42.7898 38.2014C42.9664 38.2014 43.1838 38.1878 43.3333 38.0383C43.4828 37.8889 43.4963 37.685 43.4963 37.4812V37.4405C43.4963 36.0816 43.4012 35.9865 42.0152 35.9865H39.6917C40.0449 35.6332 40.3982 35.2799 40.7515 34.9266C41.363 34.3152 42.0152 33.6629 42.6267 33.0379C42.7762 32.8884 42.912 32.8341 43.1702 32.8341C43.7409 32.8341 44.3116 32.8341 44.8823 32.8341C45.6569 32.8341 46.4586 32.8341 47.2467 32.8477C47.4233 32.8477 47.6271 32.8341 47.7766 32.6982C47.9261 32.5623 47.9397 32.3449 47.9397 32.1818V32.1411C47.9397 31.4481 47.9397 31.0948 47.7223 30.8638C47.4913 30.6328 47.138 30.6328 46.4042 30.6328H45.0454C45.0454 30.6328 45.0454 30.6328 45.059 30.6192C45.3851 30.2931 45.7112 29.967 46.0373 29.6408C46.608 29.0701 47.2059 28.4723 47.7902 27.8744C48.0756 27.5754 48.3337 27.4667 48.7278 27.4803C49.3121 27.4939 49.91 27.4939 50.4942 27.4939C50.9155 27.4939 51.3367 27.4939 51.7579 27.4939C51.9346 27.4939 52.1248 27.4803 52.2607 27.3444C52.3966 27.2086 52.4238 27.0047 52.4238 26.8553V26.8145C52.4238 26.1079 52.4238 25.741 52.2064 25.51C51.9754 25.279 51.6085 25.279 50.8747 25.279H50.372L50.3855 25.2655C50.5758 25.0888 50.766 24.9122 50.9562 24.7355C51.3095 24.3822 51.6628 24.0289 52.0161 23.6756C52.5325 23.1593 53.0488 22.6294 53.5788 22.1266C53.7146 21.9907 53.8505 21.8548 53.8369 21.651C53.8233 21.4608 53.6875 21.3249 53.5923 21.2434C53.4836 21.1482 53.3749 21.0259 53.2662 20.8901C53.0352 20.6183 52.8042 20.3465 52.4917 20.3194C52.1248 20.2922 51.8666 20.6183 51.6085 20.9308C51.5134 21.0531 51.4318 21.1618 51.3367 21.2434C50.8883 21.6918 50.4263 22.1402 49.9915 22.5886C49.6382 22.9419 49.2849 23.2952 48.9316 23.6485C48.9044 23.6756 48.8773 23.7028 48.8501 23.7436C48.8501 23.7436 48.8501 23.7436 48.8365 23.7572C48.8365 23.7028 48.8365 23.6485 48.8365 23.5941C48.8365 23.1729 48.8365 22.7652 48.8501 22.3712C48.8501 22.2353 48.8501 22.0451 48.7142 21.9092C48.5783 21.7733 48.3881 21.7461 48.225 21.7461H48.1978C47.4777 21.7325 47.1108 21.7189 46.8798 21.9499C46.6488 22.1809 46.6488 22.5478 46.6488 23.2952V23.9746C46.6488 24.5317 46.6488 25.0888 46.6488 25.6459V25.7003C46.6488 25.8633 46.6488 25.9585 46.5673 26.04L43.4963 29.1109C43.4963 29.0022 43.4963 28.8799 43.4963 28.7712C43.4963 28.1733 43.4827 27.6162 43.5099 27.0591C43.5235 26.8281 43.5099 26.5563 43.3333 26.3797C43.1566 26.203 42.8849 26.1895 42.6675 26.1895H42.5859C41.3766 26.2302 41.2951 26.3253 41.2951 27.5619V28.4723C41.2951 29.3011 41.2951 30.13 41.2951 30.9589C41.2951 31.1763 41.2815 31.3122 41.1728 31.4345C40.4934 32.1139 39.8004 32.7933 39.121 33.4727C38.7948 33.7988 38.4687 34.1249 38.1426 34.4511V32.1275C38.1426 30.7551 38.0475 30.66 36.6887 30.66H36.6479C36.4577 30.66 36.2403 30.6735 36.0908 30.823C35.9413 30.9725 35.9277 31.1899 35.9277 31.3665C35.9413 32.3177 35.9413 33.2825 35.9413 34.2065C35.9413 34.9131 35.9413 35.6196 35.9413 36.3262C35.9413 36.5844 35.8734 36.7475 35.7103 36.9105C35.3842 37.2366 35.0717 37.5763 34.7591 37.9025C34.7048 37.9704 34.6369 38.0383 34.5825 38.1063C34.5825 38.0791 34.5825 38.0519 34.5825 38.0112C34.6233 35.8371 34.6233 33.7309 34.6233 31.6247Z" fill="#FF6F61"/>
<path d="M67.4387 45.8108C67.2077 45.5662 66.8408 45.4711 66.1886 45.4711H58.1987C44.1622 45.4711 29.65 45.4711 15.3688 45.4575C14.8797 45.4575 14.2682 45.539 13.8606 46.1641L13.8334 46.2184V47.5637L13.847 47.5908C13.9149 47.8082 13.9285 48.0392 13.9285 48.2838C13.9285 48.4333 13.9421 48.5828 13.9557 48.7322C14.3361 51.7352 15.3281 54.48 16.9179 56.8851C19.092 60.1871 22.0406 62.6193 25.7094 64.114C27.9787 65.0516 30.4789 65.5 33.3324 65.5C33.346 65.5 33.3732 65.5 33.3867 65.5C36.8925 65.4864 40.439 65.5 43.8904 65.5C45.3307 65.5 46.7847 65.5 48.225 65.5C49.4615 65.5 50.5486 65.4321 51.5405 65.2826C55.7393 64.6712 59.3537 62.8368 62.3024 59.8202C65.7266 56.328 67.5474 52.0477 67.7512 47.0745C67.7648 46.4222 67.6833 46.0554 67.4387 45.8108ZM65.482 47.9305C64.9385 55.1323 59.5847 61.2877 52.4645 62.8911C51.2416 63.1629 49.9507 63.2987 48.524 63.2987C46.7303 63.2987 44.9503 63.2987 42.9664 63.2987C42.0968 63.2987 41.1728 63.2987 40.208 63.2987C39.2704 63.2716 38.2513 63.2852 37.1643 63.2987C35.3163 63.3259 33.4139 63.3395 31.4572 63.2036C27.5031 62.9183 24.0381 61.3692 21.1574 58.5565C18.168 55.6486 16.4695 52.0749 16.1026 47.9034C16.089 47.7131 16.1162 47.6724 16.1162 47.6724C16.1162 47.6724 16.157 47.6452 16.3472 47.6452C33.0199 47.6588 49.4615 47.6588 65.2374 47.6452C65.4276 47.6452 65.4548 47.6724 65.4684 47.6724C65.482 47.6995 65.4956 47.7403 65.482 47.9305Z" fill="#FF6F61"/>
<path d="M13.9149 35.6876C14.078 36.1903 14.2274 36.6931 14.5671 37.1415C15.3824 38.215 16.5238 38.7449 17.9778 38.6906C18.1816 38.6906 18.2495 38.7177 18.2631 38.7449C18.2767 38.7721 18.3175 38.8264 18.3039 39.0303C18.2767 39.5738 18.2767 40.1309 18.2903 40.6744V40.9734C18.3039 41.8294 18.7115 42.2507 19.5404 42.2643C20.0703 42.2778 20.6139 42.2778 21.171 42.2778C21.7009 42.2778 22.2444 42.2778 22.788 42.2643C23.6304 42.2507 24.0517 41.8158 24.0653 40.9326C24.0653 40.7967 24.0653 40.6608 24.0789 40.525C24.0924 40.0494 24.0924 39.5738 24.0653 39.0846C24.0517 38.8672 24.0789 38.7721 24.106 38.7449C24.1468 38.7042 24.2691 38.677 24.4729 38.677C26.022 38.7177 27.2313 38.0927 27.9651 36.8562C28.6445 35.7148 28.7124 34.4103 28.1417 33.2689C27.5846 32.1275 26.4568 31.353 25.1523 31.1899C24.867 31.1491 24.7583 31.0676 24.6631 30.8094C24.1332 29.4234 22.7336 28.4858 21.2117 28.4723C21.1982 28.4723 21.1982 28.4723 21.1846 28.4723C19.6219 28.4723 18.2631 29.3963 17.706 30.823C17.5973 31.0948 17.4886 31.1763 17.2168 31.1899C16.7956 31.2035 16.3744 31.3258 15.8852 31.5704C14.8389 32.1139 14.1595 33.0379 13.8334 34.4103V35.4294L13.847 35.4566C13.8606 35.5381 13.8877 35.606 13.9149 35.6876ZM20.5595 38.7857C20.6139 38.7313 20.8992 38.7313 21.1982 38.7313C21.4971 38.7313 21.7825 38.7313 21.8232 38.7857C21.864 38.8264 21.864 39.0982 21.864 39.3971C21.864 39.6961 21.864 39.9814 21.8096 40.0358C21.7689 40.0901 21.4835 40.0901 21.1982 40.0901C20.872 40.0901 20.6003 40.0901 20.5459 40.0358C20.4916 39.9814 20.4916 39.7097 20.4916 39.3971C20.5052 39.0982 20.5052 38.8264 20.5595 38.7857ZM20.9536 36.4621C20.641 36.4621 20.3421 36.4757 20.0296 36.4757C19.1871 36.4893 18.3175 36.5029 17.4614 36.4485C16.9858 36.4213 16.551 36.1768 16.2928 35.7827C16.0211 35.3751 15.9667 34.8587 16.1434 34.3831C16.3472 33.826 16.7412 33.4863 17.3119 33.3776C17.5429 33.3368 17.7739 33.3232 18.0593 33.3232C19.2279 33.3096 19.4317 33.1466 19.6355 32.0188C19.785 31.1899 20.3965 30.6735 21.1982 30.6735C21.2117 30.6735 21.2389 30.6735 21.2525 30.6735C22.0406 30.7007 22.6249 31.2578 22.7336 32.1003C22.8695 33.0107 23.2092 33.3096 24.1468 33.3232H24.2691C24.5273 33.3232 24.799 33.3368 25.0436 33.3776C25.791 33.4999 26.3209 34.1657 26.3073 34.9538C26.2801 35.7691 25.7094 36.3942 24.9621 36.4349C24.0789 36.4757 23.182 36.4621 22.2988 36.4621C21.9183 36.4621 21.5379 36.4485 21.1574 36.4485L20.9536 36.4621Z" fill="#FF6F61"/>
<path d="M61.6909 41.3403C61.8132 41.4762 62.0034 41.5169 62.18 41.5169C62.2752 41.5169 62.3703 41.5033 62.4654 41.4897C64.3406 41.2044 65.8353 39.4515 65.8489 37.4948C65.8624 35.5653 64.3677 33.7581 62.5062 33.4727C62.0985 33.4048 61.8947 33.3776 61.7316 33.5135C61.5686 33.6494 61.5686 33.8668 61.5686 34.288C61.5686 34.3696 61.5686 34.4511 61.5686 34.5462C61.5686 34.7228 61.5822 34.8995 61.555 35.0625C61.5006 35.6061 61.8403 35.742 62.1393 35.8099C62.9546 35.9865 63.4981 36.6524 63.4981 37.4677C63.4981 38.2965 62.9274 38.9623 62.0985 39.139C61.7045 39.2205 61.5414 39.4243 61.5686 39.8048C61.5822 39.9135 61.5686 40.0222 61.5686 40.1309C61.5686 40.1853 61.5686 40.2396 61.5686 40.294C61.5686 40.3348 61.5686 40.3891 61.5686 40.4299C61.5686 40.5114 61.5822 40.5929 61.5686 40.6473C61.5142 40.9734 61.555 41.2044 61.6909 41.3403Z" fill="#FF6F61"/>
<path d="M23.2092 25.0888C23.2907 25.0888 23.3587 25.0888 23.4402 25.0888C23.6033 25.0888 23.7663 25.0752 23.9158 25.1024C24.4185 25.1567 24.568 24.8306 24.6224 24.5588C24.7854 23.8251 25.3969 23.3223 26.1307 23.3223C26.878 23.3223 27.4895 23.8387 27.6525 24.5996C27.7341 24.9665 27.9243 25.116 28.2776 25.1024C28.3727 25.0888 28.4814 25.1024 28.5765 25.1024C28.6309 25.1024 28.6716 25.1024 28.726 25.1024C28.7668 25.1024 28.8075 25.1024 28.8483 25.1024C28.9162 25.1024 28.9978 25.1024 29.0521 25.1024C29.1336 25.116 29.2152 25.1295 29.2831 25.1295C29.4598 25.1295 29.5956 25.0752 29.7043 24.9801C29.8946 24.7898 29.881 24.4909 29.8402 24.2599C29.582 22.5206 27.9515 21.1482 26.1442 21.121C24.3506 21.1075 22.6793 22.4934 22.4211 24.2191C22.3667 24.586 22.3396 24.7898 22.4618 24.9529C22.6249 25.0888 22.8151 25.0888 23.2092 25.0888Z" fill="#FF6F61"/>
</svg>
