<svg width="20" height="24" viewBox="0 0 20 24" fill="none" xmlns="http://www.w3.org/2000/svg">
<g id="Group">
<path id="Vector" d="M16.6003 9.2862V6.90526C16.6003 5.06018 15.8821 3.32558 14.5784 2.02186C13.2747 0.718147 11.5401 0 9.695 0C5.88881 0 2.78973 3.09908 2.78973 6.90526V9.2862C1.14904 10.0099 0 11.6506 0 13.5564V18.7547C0 21.3235 2.09368 23.4171 4.66244 23.4171H14.722C17.2908 23.4171 19.3845 21.3235 19.3845 18.7547V13.5564C19.39 11.6506 18.241 10.0099 16.6003 9.2862ZM9.695 1.93347C11.0208 1.93347 12.2693 2.45275 13.2084 3.39187C14.1475 4.33098 14.6668 5.57945 14.6668 6.90526V8.89398H4.72321V6.90526C4.72321 4.16526 6.95499 1.93347 9.695 1.93347ZM17.4565 18.7547C17.4565 20.2628 16.2301 21.4837 14.7276 21.4837H4.66244C3.15985 21.4837 1.93348 20.2573 1.93348 18.7547V13.5564C1.93348 12.0538 3.15985 10.8275 4.66244 10.8275H14.722C16.2246 10.8275 17.451 12.0538 17.451 13.5564V18.7547H17.4565Z" fill="#464255"/>
<path id="Vector_2" d="M9.69501 13.9597C9.15916 13.9597 8.72827 14.3906 8.72827 14.9264V18.5282C8.72827 19.0641 9.15916 19.4949 9.69501 19.4949C10.2309 19.4949 10.6617 19.0641 10.6617 18.5282V14.9264C10.6617 14.3906 10.2309 13.9597 9.69501 13.9597Z" fill="#464255"/>
</g>
</svg>
