<svg width="81" height="81" viewBox="0 0 81 81" fill="none" xmlns="http://www.w3.org/2000/svg">
<rect x="0.5" y="0.5" width="80" height="80" rx="9.16667" fill="#DFFFF7"/>
<path d="M61.0004 52.1952L60.8605 51.6495C59.0275 44.2334 53.3324 38.6223 46.2382 36.7193C49.4705 34.8443 51.6533 31.3462 51.6533 27.3443C51.6533 21.3694 46.7839 16.5 40.809 16.5C34.8341 16.5 29.9647 21.3554 29.9647 27.3303C29.9647 31.3462 32.1615 34.8583 35.4218 36.7333C28.3555 38.6643 22.7165 44.2614 20.8835 51.6495L20.7435 52.1952C19.918 55.5255 20.6596 58.9956 22.7725 61.6962C24.8854 64.3968 28.0757 65.95 31.5039 65.95H50.2261C53.6543 65.95 56.8446 64.3968 58.9575 61.6962C61.0844 58.9956 61.826 55.5255 61.0004 52.1952ZM32.6233 27.3303C32.6233 22.8107 36.2894 19.1446 40.809 19.1446C45.3286 19.1446 48.9947 22.8107 48.9947 27.3303C48.9947 31.8499 45.3146 35.516 40.809 35.516C36.3034 35.516 32.6233 31.8499 32.6233 27.3303ZM56.8726 60.0591C55.2634 62.116 52.8427 63.2914 50.2401 63.2914H31.5179C28.9013 63.2914 26.4945 62.116 24.8854 60.0591C23.2762 58.0021 22.7165 55.3715 23.3462 52.8389L23.4861 52.2931C25.4731 44.2754 32.6233 38.6783 40.893 38.6783C49.1626 38.6783 56.3129 44.2754 58.2998 52.2931L58.4398 52.8389C59.0414 55.3715 58.4817 58.0021 56.8726 60.0591Z" fill="#44DDBA"/>
<path d="M46.8258 49.6483H42.2083V44.8908C42.2083 44.1632 41.6066 43.5615 40.879 43.5615C40.1513 43.5615 39.5497 44.1632 39.5497 44.8908V49.6483H34.9321C34.2045 49.6483 33.6028 50.25 33.6028 50.9776C33.6028 51.7052 34.2045 52.3069 34.9321 52.3069H39.5497V56.7845C39.5497 57.5122 40.1513 58.1138 40.879 58.1138C41.6066 58.1138 42.2083 57.5122 42.2083 56.7845V52.3069H46.8258C47.5535 52.3069 48.1551 51.7052 48.1551 50.9776C48.1551 50.25 47.5535 49.6483 46.8258 49.6483Z" fill="#44DDBA"/>
</svg>
