<svg width="81" height="81" viewBox="0 0 81 81" fill="none" xmlns="http://www.w3.org/2000/svg">
<rect width="81" height="81" rx="10.3529" fill="#DEFEE4"/>
<g clip-path="url(#clip0_514_1156)">
<path d="M39.3753 16.2002C50.5932 16.258 60.0864 24.0662 62.0865 35.0555C63.3909 42.2274 61.6227 48.6764 56.9268 54.2722C56.5645 54.6916 56.608 54.894 56.9848 55.2555C59.7096 57.945 62.4198 60.6489 65.1301 63.3529C65.2895 63.5119 65.4345 63.6565 65.5649 63.83C65.8837 64.3072 65.8113 64.9723 65.42 65.3772C65.0141 65.7965 64.3185 65.8833 63.8257 65.5362C63.6518 65.4206 63.4923 65.2615 63.3474 65.1025C60.6081 62.3696 57.8689 59.6512 55.1441 56.9039C54.8398 56.6002 54.6659 56.5713 54.318 56.8605C40.9986 68.1534 20.3745 61.1261 16.7221 44.0783C14.0119 31.4695 22.2296 19.0921 34.9548 16.5906C36.4042 16.3303 37.8825 16.1857 39.3753 16.2002ZM59.927 39.4512C59.927 28.2306 50.7381 19.0198 39.5492 18.9909C28.1429 18.9764 18.9396 28.086 18.9251 39.4078C18.9106 50.7441 28.0994 59.9259 39.4623 59.9115C50.7526 59.897 59.927 50.7297 59.927 39.4512Z" fill="#2C9642"/>
<path d="M39.4039 44.9025C36.4908 44.9025 33.5776 44.9025 30.6789 44.9025C30.447 44.9025 30.2006 44.9025 29.9832 44.8591C29.36 44.7289 28.9252 44.1939 28.9542 43.5866C28.9832 42.9649 29.447 42.4443 30.0847 42.4154C30.6064 42.4009 30.6499 42.1696 30.6354 41.7503C30.505 39.1186 31.2876 36.8051 33.1718 34.9109C34.4182 33.6384 35.94 32.8432 37.6937 32.5106C38.0271 32.4383 38.172 32.366 38.172 31.9756C38.172 31.1803 38.7083 30.6309 39.4184 30.6309C40.1431 30.6309 40.6649 31.1803 40.6504 31.9756C40.6504 32.3226 40.7228 32.4817 41.0852 32.554C45.3462 33.436 48.129 36.8051 48.2014 41.143C48.2014 41.2731 48.2159 41.4032 48.2014 41.5189C48.1579 42.0395 48.1435 42.4443 48.8971 42.4299C49.4189 42.4154 49.8392 43.0082 49.8682 43.5577C49.8972 44.1072 49.5348 44.6133 48.9986 44.8012C48.7377 44.888 48.4623 44.888 48.1869 44.888C45.2593 44.9025 42.3316 44.9025 39.4039 44.9025ZM39.4184 42.3865C41.1142 42.3865 42.8099 42.3865 44.5056 42.3865C45.6941 42.3865 45.6941 42.3865 45.7086 41.2153C45.7086 41.0128 45.7231 40.8249 45.7231 40.6224C45.6796 37.6727 43.549 35.1133 40.6649 34.5494C37.7372 33.971 34.8095 35.5471 33.6501 38.28C33.1718 39.4078 33.1718 40.5935 33.1428 41.7792C33.1283 42.2419 33.2297 42.4009 33.7225 42.3865C35.6212 42.372 37.5198 42.3865 39.4184 42.3865Z" fill="#2C9642"/>
<path d="M39.0126 57.3665C34.6501 57.2798 30.505 55.6748 26.9976 52.4069C26.5773 52.0165 26.3889 51.5538 26.5628 51.0043C26.7077 50.5416 27.0556 50.2524 27.5338 50.1657C28.0556 50.0645 28.4324 50.3247 28.7803 50.6573C30.7949 52.5515 33.1283 53.8529 35.8241 54.4746C38.6068 55.1253 41.375 55.0819 44.0998 54.1565C44.6795 53.9541 45.3752 54.3156 45.5926 54.9229C45.8245 55.5591 45.5202 56.2676 44.8535 56.5134C44.0273 56.8171 43.1577 57.0051 42.2881 57.1352C41.3316 57.2798 40.375 57.3665 39.0126 57.3665Z" fill="#2C9642"/>
<path d="M22.2727 34.3325C22.3887 33.7107 22.6496 33.0745 22.9249 32.4527C24.6641 28.4474 27.4904 25.4398 31.3746 23.4444C32.1282 23.054 32.8529 23.2275 33.2008 23.8638C33.5631 24.5289 33.3167 25.2519 32.5341 25.6567C28.7078 27.6232 26.1135 30.6453 24.7076 34.7084C24.4467 35.4459 23.8815 35.8074 23.2293 35.6628C22.6351 35.5326 22.2293 34.9976 22.2727 34.3325Z" fill="#2C9642"/>
<path d="M37.7662 24.182C37.5198 24.182 37.2299 24.2109 36.9546 24.182C36.3458 24.0953 35.9255 23.5892 35.911 22.9819C35.8965 22.4035 36.2879 21.8829 36.8821 21.7673C37.7372 21.6082 38.6068 21.5359 39.4764 21.5648C40.1721 21.5938 40.6649 22.1288 40.6649 22.7939C40.6649 23.4735 40.2011 23.9796 39.5054 24.0519C38.9402 24.0953 38.3749 24.1386 37.7662 24.182Z" fill="#2C9642"/>
</g>
<defs>
<clipPath id="clip0_514_1156">
<rect width="49.5529" height="49.5529" fill="white" transform="translate(16.2 16.2002)"/>
</clipPath>
</defs>
</svg>
