<svg width="81" height="81" viewBox="0 0 81 81" fill="none" xmlns="http://www.w3.org/2000/svg">
<rect width="81" height="81" rx="9.16667" fill="#E4EBFF"/>
<path d="M32.1975 61.1551C26.5275 60.7501 22.1738 55.9913 22.1738 50.3213V31.4888C23.895 33.4126 26.325 34.6276 29.16 34.6276H31.185C31.8938 34.6276 32.4 34.1213 32.4 33.4126C32.4 32.7038 31.8938 32.1976 31.185 32.1976H29.16C25.3125 32.1976 22.1738 29.0588 22.1738 25.2113V20.4526V16.9088C22.1738 16.2001 21.6675 15.6938 20.9588 15.6938C20.25 15.6938 19.7438 16.2001 19.7438 16.9088V20.4526V25.3126V50.4226C19.7438 57.3076 25.11 63.1801 31.995 63.6863H32.0963C32.7038 63.6863 33.21 63.1801 33.3113 62.5726C33.4125 61.8638 32.9063 61.2563 32.1975 61.1551Z" fill="#5D87FF"/>
<path fill-rule="evenodd" clip-rule="evenodd" d="M32.2261 60.9545C33.0336 61.0699 33.6304 61.77 33.5117 62.6011L33.511 62.6058C33.3967 63.2921 32.8207 63.8887 32.0963 63.8887H31.9876L31.9802 63.8882C24.9877 63.374 19.5413 57.4118 19.5413 50.4225V16.9087C19.5413 16.0881 20.1382 15.4912 20.9588 15.4912C21.7793 15.4912 22.3763 16.0881 22.3763 16.9087V25.2112C22.3763 28.9469 25.4243 31.995 29.16 31.995H31.185C32.0056 31.995 32.6025 32.5919 32.6025 33.4125C32.6025 34.2331 32.0056 34.83 31.185 34.83H29.16C26.4528 34.83 24.1061 33.7445 22.3763 31.9991V50.3212C22.3763 55.8868 26.6497 60.5557 32.2119 60.953L32.2261 60.9545ZM22.1738 50.3212C22.1738 55.9912 26.5275 60.75 32.1975 61.155C32.9063 61.2562 33.4125 61.8637 33.3113 62.5725C33.21 63.18 32.7038 63.6862 32.0963 63.6862H31.995C25.11 63.18 19.7438 57.3075 19.7438 50.4225V16.9087C19.7438 16.2 20.25 15.6937 20.9588 15.6937C21.6675 15.6937 22.1738 16.2 22.1738 16.9087V25.2112C22.1738 29.0587 25.3125 32.1975 29.16 32.1975H31.185C31.8938 32.1975 32.4 32.7037 32.4 33.4125C32.4 34.1212 31.8938 34.6275 31.185 34.6275H29.16C26.4344 34.6275 24.0832 33.5045 22.3763 31.7083C22.3077 31.6362 22.2402 31.563 22.1738 31.4887V50.3212Z" fill="#5D87FF"/>
<path d="M37.8675 37.0571H60.8513C61.56 37.0571 62.0663 36.5509 62.0663 35.8421C62.0663 35.1334 61.56 34.6271 60.8513 34.6271H59.6363C59.3325 29.5646 55.3838 25.5146 50.4225 25.0084C50.8275 24.7046 51.1313 24.1984 51.1313 23.5909C51.1313 22.5784 50.3213 21.8696 49.41 21.8696C48.3975 21.8696 47.6888 22.6796 47.6888 23.5909C47.6888 24.1984 47.9925 24.7046 48.3975 25.0084C43.4363 25.5146 39.4875 29.5646 39.1838 34.6271H39.5888H37.9688C37.26 34.6271 36.7538 35.1334 36.7538 35.8421C36.7538 36.5509 37.26 37.0571 37.8675 37.0571ZM49.41 27.3371C53.46 27.3371 56.9025 30.5771 57.2063 34.6271H41.5125C41.8163 30.5771 45.2588 27.3371 49.41 27.3371Z" fill="#5D87FF"/>
<path fill-rule="evenodd" clip-rule="evenodd" d="M39.1979 34.425C39.5858 29.5514 43.3557 25.6582 48.1204 25.0408C48.2124 25.0289 48.3048 25.0182 48.3975 25.0087C48.3254 24.9547 48.2565 24.8942 48.192 24.8278C47.894 24.5215 47.6888 24.0906 47.6888 23.5912C47.6888 22.68 48.3975 21.87 49.41 21.87C50.3213 21.87 51.1313 22.5787 51.1313 23.5912C51.1313 24.0906 50.926 24.5215 50.628 24.8278C50.5635 24.8942 50.4946 24.9547 50.4225 25.0087C50.5152 25.0182 50.6076 25.0289 50.6996 25.0408C55.5301 25.6667 59.3382 29.6596 59.6363 34.6275H60.8513C61.56 34.6275 62.0663 35.1337 62.0663 35.8425C62.0663 36.5512 61.56 37.0575 60.8513 37.0575H37.8675C37.26 37.0575 36.7538 36.5512 36.7538 35.8425C36.7538 35.1337 37.26 34.6275 37.9688 34.6275H39.1838C39.1878 34.5598 39.1925 34.4923 39.1979 34.425ZM38.9948 34.425H37.9688C37.1482 34.425 36.5513 35.0219 36.5513 35.8425C36.5513 36.6513 37.1368 37.26 37.8675 37.26H60.8513C61.6718 37.26 62.2688 36.6631 62.2688 35.8425C62.2688 35.0219 61.6718 34.425 60.8513 34.425H59.8253C59.4407 29.4977 55.6665 25.5501 50.8717 24.86C51.1494 24.5288 51.3338 24.0909 51.3338 23.5912C51.3338 22.4592 50.4252 21.6675 49.41 21.6675C48.278 21.6675 47.4863 22.576 47.4863 23.5912C47.4863 24.0909 47.6706 24.5288 47.9483 24.86C43.1535 25.5501 39.3794 29.4977 38.9948 34.425ZM56.9848 34.425C56.5843 30.5811 53.2795 27.54 49.41 27.54C45.4395 27.54 42.1344 30.5826 41.7339 34.425H56.9848ZM57.1884 34.425C56.7872 30.47 53.3923 27.3375 49.41 27.3375C45.3282 27.3375 41.9316 30.47 41.5304 34.425C41.5235 34.4922 41.5176 34.5598 41.5125 34.6275H57.2063C57.2012 34.5598 57.1952 34.4922 57.1884 34.425Z" fill="#5D87FF"/>
<path d="M60.8513 60.6486H59.6363C59.3325 55.6874 55.3838 51.5361 50.4225 51.0299C50.8275 50.7261 51.1313 50.2199 51.1313 49.6124C51.1313 48.5999 50.3213 47.8911 49.41 47.8911C48.3975 47.8911 47.6888 48.7011 47.6888 49.6124C47.6888 50.2199 47.9925 50.7261 48.3975 51.0299C43.4363 51.5361 39.4875 55.5861 39.1838 60.6486H39.5888H37.9688C37.26 60.6486 36.7538 61.1549 36.7538 61.8636C36.7538 62.5724 37.26 63.0786 37.9688 63.0786H60.9525C61.6613 63.0786 62.1675 62.5724 62.1675 61.8636C62.1675 61.1549 61.56 60.6486 60.8513 60.6486ZM49.41 53.3586C53.46 53.3586 56.9025 56.5986 57.2063 60.6486H41.5125C41.8163 56.5986 45.2588 53.3586 49.41 53.3586Z" fill="#5D87FF"/>
<path fill-rule="evenodd" clip-rule="evenodd" d="M39.1979 60.446C39.5858 55.5724 43.3557 51.6792 48.1204 51.0618C48.2124 51.0499 48.3048 51.0392 48.3975 51.0297C48.3254 50.9757 48.2565 50.9152 48.192 50.8488C47.894 50.5425 47.6888 50.1116 47.6888 49.6122C47.6888 48.701 48.3975 47.891 49.41 47.891C50.3213 47.891 51.1313 48.5997 51.1313 49.6122C51.1313 50.1116 50.926 50.5425 50.628 50.8489C50.5635 50.9152 50.4946 50.9757 50.4225 51.0297C50.5152 51.0392 50.6075 51.0499 50.6995 51.0619C55.53 51.6914 59.3382 55.7799 59.6363 60.6485H60.8513C61.56 60.6485 62.1675 61.1547 62.1675 61.8635C62.1675 62.5722 61.6613 63.0785 60.9525 63.0785H37.9688C37.26 63.0785 36.7538 62.5722 36.7538 61.8635C36.7538 61.1547 37.26 60.6485 37.9688 60.6485H39.1838C39.1878 60.5808 39.1925 60.5133 39.1979 60.446ZM38.9948 60.446H37.9688C37.1482 60.446 36.5513 61.0429 36.5513 61.8635C36.5513 62.6841 37.1482 63.281 37.9688 63.281H60.9525C61.7731 63.281 62.37 62.6841 62.37 61.8635C62.37 61.0223 61.6501 60.446 60.8513 60.446H59.825C59.4388 55.614 55.6665 51.5765 50.8715 50.8812C51.1493 50.55 51.3338 50.112 51.3338 49.6122C51.3338 48.4802 50.4252 47.6885 49.41 47.6885C48.278 47.6885 47.4863 48.597 47.4863 49.6122C47.4863 50.1119 47.6706 50.5498 47.9483 50.881C43.1535 51.5711 39.3794 55.5187 38.9948 60.446ZM56.9848 60.446C56.5843 56.6021 53.2795 53.561 49.41 53.561C45.4395 53.561 42.1344 56.6036 41.7339 60.446H56.9848ZM57.1884 60.446C56.7872 56.491 53.3923 53.3585 49.41 53.3585C45.3282 53.3585 41.9316 56.491 41.5304 60.446C41.5235 60.5132 41.5176 60.5807 41.5125 60.6485H57.2063C57.2012 60.5807 57.1952 60.5132 57.1884 60.446Z" fill="#5D87FF"/>
</svg>
